HIERARCHY
ROOT joint_0
{
	OFFSET 0.000000 0.000000 0.000000
	CHANNELS 6 Xposition Yposition Zposition Zrotation Yrotation Xrotation 
	JOINT joint_1
	{
		OFFSET 3.886261 -0.864090 119.041016
		CHANNELS 3 Zrotation Yrotation Xrotation
		JOINT joint_2
		{
			OFFSET -8.814819 -1.400200 108.366943
			CHANNELS 3 Zrotation Yrotation Xrotation
			JOINT joint_3
			{
				OFFSET -10.127777 -1.846550 108.123047
				CHANNELS 3 Zrotation Yrotation Xrotation
				JOINT joint_4
				{
					OFFSET -0.104309 -2.852760 150.227051
					CHANNELS 3 Zrotation Yrotation Xrotation
					JOINT joint_5
					{
						OFFSET 20.206146 2.292160 92.163940
						CHANNELS 3 Zrotation Yrotation Xrotation
						End Site
						{
							OFFSET 0.000000 0.000000 0.000000
						}
					}
				}
				JOINT joint_6
				{
					OFFSET 0.345886 -34.260384 83.589966
					CHANNELS 3 Zrotation Yrotation Xrotation
					JOINT joint_7
					{
						OFFSET -3.824402 -146.174217 -19.015991
						CHANNELS 3 Zrotation Yrotation Xrotation
						JOINT joint_8
						{
							OFFSET 134.098145 -24.802032 -261.230957
							CHANNELS 3 Zrotation Yrotation Xrotation
							JOINT joint_9
							{
								OFFSET 123.899048 209.340523 59.187012
								CHANNELS 3 Zrotation Yrotation Xrotation
								End Site
								{
									OFFSET 0.000000 0.000000 0.000000
								}
							}
						}
					}
				}
				JOINT joint_10
				{
					OFFSET -0.423798 31.098438 84.831055
					CHANNELS 3 Zrotation Yrotation Xrotation
					JOINT joint_11
					{
						OFFSET 3.093201 146.891491 -12.504028
						CHANNELS 3 Zrotation Yrotation Xrotation
						JOINT joint_12
						{
							OFFSET 195.631927 -20.967743 -219.380981
							CHANNELS 3 Zrotation Yrotation Xrotation
							JOINT joint_13
							{
								OFFSET -8.651001 -247.511261 -36.616089
								CHANNELS 3 Zrotation Yrotation Xrotation
								End Site
								{
									OFFSET 0.000000 0.000000 0.000000
								}
							}
						}
					}
				}
			}
		}
	}
	JOINT joint_14
	{
		OFFSET 6.948090 -87.642914 -106.942017
		CHANNELS 3 Zrotation Yrotation Xrotation
		JOINT joint_15
		{
			OFFSET -34.394226 4.543823 -458.972961
			CHANNELS 3 Zrotation Yrotation Xrotation
			JOINT joint_16
			{
				OFFSET -17.051544 6.964645 -485.636009
				CHANNELS 3 Zrotation Yrotation Xrotation
				JOINT joint_17
				{
					OFFSET 190.520630 40.462875 -83.888000
					CHANNELS 3 Zrotation Yrotation Xrotation
					End Site
					{
						OFFSET 0.000000 0.000000 0.000000
					}
				}
			}
		}
	}
	JOINT joint_18
	{
		OFFSET 3.929901 87.535423 -107.188965
		CHANNELS 3 Zrotation Yrotation Xrotation
		JOINT joint_19
		{
			OFFSET -34.463440 -10.383845 -458.873047
			CHANNELS 3 Zrotation Yrotation Xrotation
			JOINT joint_20
			{
				OFFSET 14.641205 -11.071349 -485.637978
				CHANNELS 3 Zrotation Yrotation Xrotation
				JOINT joint_21
				{
					OFFSET 194.569275 -4.161928 -84.249998
					CHANNELS 3 Zrotation Yrotation Xrotation
					End Site
					{
						OFFSET 0.000000 0.000000 0.000000
					}
				}
			}
		}
	}
}
MOTION
Frames: 10
Frame Time: 0.016667
-782.521423 -97.421936 1157.003052 9.838655 0.719159 -0.249900 0.406941 -7.279798 -2.897625 0.891058 0.842702 0.553674 0.738174 -1.701822 -0.461186 0.080830 2.189486 -0.709321 0.000000 0.000000 0.000000 -0.146418 12.731133 7.094560 5.858484 16.816237 -2.933773 -48.345950 12.182993 -85.263938 0.000000 0.000000 0.000000 2.306333 22.016633 -3.709282 -2.676458 20.690085 22.356643 29.160079 -35.842935 53.955696 0.000000 0.000000 0.000000 -2.740875 -5.536176 0.284242 -2.477697 7.843577 -0.894502 -2.545023 -2.724716 -0.535436 0.000000 0.000000 0.000000 0.394803 -7.233744 0.043138 0.066291 10.330423 0.363528 0.663597 -3.366370 0.213598 0.000000 0.000000 0.000000 
-781.900269 -97.501404 1157.452026 9.795008 1.118374 -0.226384 0.294625 -6.887720 -3.071545 0.765054 0.819378 0.548947 0.613668 -1.681265 -0.454060 0.125541 1.604395 -0.807252 0.000000 0.000000 0.000000 -0.445288 12.931665 7.117356 5.695061 16.592209 -3.279131 -47.918056 12.479775 -84.248169 0.000000 0.000000 0.000000 2.073454 22.216755 -3.494362 -0.948111 21.065796 22.092301 30.054348 -36.316822 52.170956 0.000000 0.000000 0.000000 -2.756161 -5.930688 0.286435 -2.485361 7.809384 -0.904609 -2.554945 -2.693367 -0.546543 0.000000 0.000000 0.000000 0.402036 -7.581369 0.050725 0.078630 10.223089 0.319786 0.665281 -3.330857 0.215162 0.000000 0.000000 0.000000 
-780.658020 -97.549942 1157.843018 9.663135 1.765690 -0.205434 0.206659 -6.580096 -3.208646 0.659331 0.814799 0.551991 0.507923 -1.659231 -0.454721 0.201668 0.638892 -1.000248 0.000000 0.000000 0.000000 -0.532527 13.180015 7.085273 5.214930 16.473335 -3.381036 -47.754116 12.679103 -83.029008 0.000000 0.000000 0.000000 1.704518 22.535093 -3.132180 0.851382 21.523210 21.606491 31.146915 -36.803506 50.175122 0.000000 0.000000 0.000000 -2.737704 -6.561644 0.291546 -2.457839 7.755884 -0.884179 -2.530264 -2.647794 -0.545584 0.000000 0.000000 0.000000 0.433611 -8.147465 0.068779 0.116588 10.087727 0.270906 0.689321 -3.293006 0.226394 0.000000 0.000000 0.000000 
-778.390808 -97.496284 1157.994995 9.379877 2.818916 -0.207226 0.171627 -6.569759 -3.224397 0.599421 0.874459 0.565965 0.444398 -1.663386 -0.467057 0.330174 -1.064697 -1.399205 0.000000 0.000000 0.000000 -0.139161 13.537292 6.963695 4.087047 16.632528 -2.883316 -48.318840 12.565436 -81.564405 0.000000 0.000000 0.000000 1.161159 23.109624 -2.530944 2.260558 22.119390 20.687997 32.446073 -37.383918 48.295384 0.000000 0.000000 0.000000 -2.654741 -7.559470 0.313084 -2.364137 7.635229 -0.807112 -2.439764 -2.564796 -0.523834 0.000000 0.000000 0.000000 0.509858 -9.060170 0.107977 0.201175 9.888069 0.233839 0.753034 -3.240924 0.254975 0.000000 0.000000 0.000000 
-775.230835 -97.370491 1157.988037 8.970632 4.204133 -0.232821 0.155574 -6.708448 -3.151930 0.550344 0.967017 0.572457 0.391666 -1.705735 -0.476009 0.469255 -3.465039 -1.952619 0.000000 0.000000 0.000000 0.684732 14.013405 6.795235 2.355258 17.036175 -1.960474 -49.460848 12.331879 -79.700277 0.000000 0.000000 0.000000 0.507104 23.971365 -1.709857 3.506489 22.857067 19.338243 34.089026 -38.044901 46.276762 0.000000 0.000000 0.000000 -2.519371 -8.848927 0.347076 -2.217795 7.447303 -0.682558 -2.296026 -2.433060 -0.489040 0.000000 0.000000 0.000000 0.620651 -10.242858 0.167206 0.323742 9.615746 0.203529 0.848132 -3.164543 0.297520 0.000000 0.000000 0.000000 
-771.943481 -97.251465 1158.008057 8.492601 5.604629 -0.263175 0.304133 -6.757707 -3.142274 0.674370 1.011970 0.595868 0.510017 -1.720322 -0.500212 0.536873 -5.551952 -2.352729 0.000000 0.000000 0.000000 1.101940 14.450237 6.768401 0.843018 17.354955 -1.317323 -50.442909 12.377481 -78.043023 0.000000 0.000000 0.000000 -0.303621 24.574619 -1.184774 4.916285 23.424022 18.494887 35.368211 -38.420675 44.328508 0.000000 0.000000 0.000000 -2.365166 -10.199474 0.359945 -2.056051 7.339084 -0.525363 -2.135273 -2.285987 -0.449756 0.000000 0.000000 0.000000 0.750594 -11.476735 0.230091 0.466642 9.429935 0.161885 0.972044 -3.106952 0.351920 0.000000 0.000000 0.000000 
-768.995667 -97.376915 1158.118042 7.969284 6.887730 -0.286242 0.812272 -6.626059 -3.348686 1.189041 0.940618 0.703735 1.007399 -1.635108 -0.596945 0.521374 -6.535970 -2.409968 0.000000 0.000000 0.000000 0.284922 14.708747 7.004243 0.363082 17.303009 -1.403026 -50.692533 12.814443 -77.390375 0.000000 0.000000 0.000000 -1.523764 24.401154 -1.310184 6.305930 23.558448 19.111863 35.249077 -38.184992 43.220053 0.000000 0.000000 0.000000 -2.208087 -11.487206 0.346722 -1.897923 7.302202 -0.338534 -1.976184 -2.110911 -0.416943 0.000000 0.000000 0.000000 0.901355 -12.655606 0.307307 0.634369 9.353291 0.073170 1.132614 -3.081817 0.421276 0.000000 0.000000 0.000000 
-766.096802 -97.721970 1158.248047 7.381114 8.160100 -0.313076 1.618904 -6.365817 -3.718528 2.030943 0.762517 0.890600 1.820740 -1.473887 -0.772305 0.460414 -6.807792 -2.216310 0.000000 0.000000 0.000000 -1.443891 14.856330 7.408696 0.634559 17.006770 -1.918701 -50.477306 13.444617 -77.506795 0.000000 0.000000 0.000000 -3.142092 23.627108 -1.858668 7.547614 23.361972 20.804867 33.970237 -37.551789 42.895218 0.000000 0.000000 0.000000 -2.035871 -12.780560 0.319481 -1.731106 7.273554 -0.114425 -1.806266 -1.888192 -0.389396 0.000000 0.000000 0.000000 1.077807 -13.843724 0.405932 0.832888 9.318902 -0.055996 1.329695 -3.070815 0.505903 0.000000 0.000000 0.000000 
-763.407043 -97.432373 1158.650024 6.810615 9.143747 -0.316244 2.275395 -5.824972 -4.011699 2.712600 0.561536 1.028675 2.482744 -1.280639 -0.917175 0.400470 -6.880656 -1.965881 0.000000 0.000000 0.000000 -2.859511 14.894982 7.596953 0.622442 16.687969 -2.329924 -50.310910 14.075068 -77.196933 0.000000 0.000000 0.000000 -4.434725 22.652772 -2.389316 10.374715 23.136247 21.903053 33.835241 -37.059318 40.883220 0.000000 0.000000 0.000000 -1.877926 -14.039624 0.210838 -1.576520 7.764624 0.101962 -1.651913 -1.850132 -0.329089 0.000000 0.000000 0.000000 1.225729 -14.957688 0.427670 0.985833 9.732316 -0.128900 1.513297 -3.194190 0.581434 0.000000 0.000000 0.000000 
-761.441589 -95.670006 1159.499023 6.288949 9.612573 -0.255136 2.432278 -4.870991 -4.042544 2.849597 0.430369 1.005748 2.625430 -1.080705 -0.920689 0.368589 -7.048162 -1.803460 0.000000 0.000000 0.000000 -3.002508 14.763815 7.245830 -0.323159 16.439451 -2.261504 -50.532132 14.597638 -75.728435 0.000000 0.000000 0.000000 -4.877894 21.714542 -2.803564 16.674989 23.066702 21.319353 36.522289 -36.240243 34.810482 0.000000 0.000000 0.000000 -1.757138 -15.333876 -0.053833 -1.446227 9.339961 0.271957 -1.531556 -2.233648 -0.193516 0.000000 0.000000 0.000000 1.320800 -16.015398 0.266952 1.049168 11.051679 -0.072647 1.674378 -3.586893 0.640475 0.000000 0.000000 0.000000 
